PathFileType	4	(X/Y/Z)	output.trc
DataRate	CameraRate	NumFrames	NumMarkers	Units	OrigDataRate	OrigDataStartFrame	OrigNumFrames
100	100	13	23	m	100	1408	3753
Frame#	Time	C7			T8			EL			EM			US			RS			AA			Fore_Clus_1			Fore_Clus_2			Fore_Clus_3			Fore_Clus_4			Hum_Clus_1			Hum_Clus_2			Hum_Clus_3			Hum_Clus_4			Thor_Clus_1			Thor_Clus_2			Thor_Clus_3			Thor_Clus_4			IJ			PX			GH			Thor_Clus_5		
		X1	Y1	Z1	X2	Y2	Z2	X3	Y3	Z3	X4	Y4	Z4	X5	Y5	Z5	X6	Y6	Z6	X7	Y7	Z7	X8	Y8	Z8	X9	Y9	Z9	X10	Y10	Z10	X11	Y11	Z11	X12	Y12	Z12	X13	Y13	Z13	X14	Y14	Z14	X15	Y15	Z15	X16	Y16	Z16	X17	Y17	Z17	X18	Y18	Z18	X19	Y19	Z19	X20	Y20	Z20	X21	Y21	Z21	X22	Y22	Z22	X23	Y23	Z23
1407	14.070000	-0.030406	1.572349	-0.060081	-0.035375	1.328723	-0.102564	-0.245843	1.177887	0.056834	-0.181603	1.171069	0.014844	-0.259840	0.904769	0.081341	-0.204790	0.904223	0.116850	-0.202095	1.497392	0.037750	-0.273206	0.957509	0.110117	-0.275518	0.903552	0.116934	-0.254508	0.905313	0.135454	-0.239559	0.960939	0.139645	-0.242511	1.285396	0.119182	-0.266762	1.295561	0.064971	-0.275515	1.358365	0.068843	-0.245406	1.359540	0.119327	0.097056	1.472436	0.102713	0.051019	1.423920	0.154260	0.057381	1.472173	0.122715	0.108627	1.424520	0.125263	0.035872	1.500613	0.061440	0.064899	1.319977	0.116201	-0.169940	1.482600	0.065400	0.045969	1.445368	0.143870
1408	14.080000	-0.030383	1.572350	-0.060062	-0.035368	1.328725	-0.102547	-0.245801	1.177872	0.056842	-0.181562	1.171064	0.014851	-0.259756	0.904744	0.081361	-0.204704	0.904210	0.116868	-0.202073	1.497401	0.037775	-0.273112	0.957482	0.110125	-0.275435	0.903548	0.116943	-0.254412	0.905307	0.135449	-0.239463	0.960930	0.139655	-0.242460	1.285390	0.119217	-0.266716	1.295550	0.065000	-0.275480	1.358352	0.068879	-0.245373	1.359532	0.119364	0.097080	1.472433	0.102728	0.051050	1.423930	0.154280	0.057409	1.472166	0.122725	0.108649	1.424506	0.125264	0.035895	1.500609	0.061456	0.064915	1.319971	0.116213	-0.169924	1.482591	0.065432	0.046003	1.445370	0.143877
1409	14.090000	-0.030360	1.572353	-0.060041	-0.035361	1.328729	-0.102533	-0.245759	1.177858	0.056853	-0.181520	1.171057	0.014860	-0.259667	0.904721	0.081383	-0.204615	0.904200	0.116890	-0.202050	1.497412	0.037801	-0.273031	0.957466	0.110152	-0.275358	0.903512	0.116978	-0.254350	0.905276	0.135461	-0.239406	0.960897	0.139682	-0.242408	1.285361	0.119259	-0.266677	1.295528	0.065038	-0.275452	1.358332	0.068927	-0.245328	1.359505	0.119400	0.097103	1.472432	0.102734	0.051047	1.423929	0.154309	0.057429	1.472163	0.122736	0.108666	1.424500	0.125277	0.035919	1.500605	0.061472	0.064930	1.319963	0.116223	-0.169906	1.482582	0.065464	0.046013	1.445367	0.143889
1410	14.100000	-0.030336	1.572357	-0.060019	-0.035353	1.328735	-0.102521	-0.245717	1.177843	0.056865	-0.181478	1.171050	0.014870	-0.259576	0.904697	0.081408	-0.204525	0.904188	0.116917	-0.202027	1.497421	0.037827	-0.272966	0.957448	0.110161	-0.275279	0.903509	0.116996	-0.254271	0.905288	0.135476	-0.239310	0.960898	0.139690	-0.242348	1.285347	0.119293	-0.266622	1.295519	0.065066	-0.275416	1.358321	0.068976	-0.245267	1.359500	0.119434	0.097121	1.472419	0.102764	0.051143	1.423888	0.154179	0.057455	1.472155	0.122755	0.108691	1.424504	0.125297	0.035943	1.500600	0.061488	0.064945	1.319954	0.116231	-0.169885	1.482572	0.065495	0.046037	1.445383	0.143901
1411	14.110000	-0.030309	1.572364	-0.059995	-0.035345	1.328745	-0.102511	-0.245675	1.177827	0.056880	-0.181437	1.171040	0.014883	-0.259482	0.904677	0.081436	-0.204434	0.904182	0.116950	-0.202002	1.497435	0.037851	-0.272878	0.957426	0.110193	-0.275190	0.903464	0.117036	-0.254209	0.905254	0.135509	-0.239268	0.960871	0.139727	-0.242302	1.285308	0.119320	-0.266600	1.295489	0.065090	-0.275386	1.358283	0.069009	-0.245229	1.359469	0.119473	0.097136	1.472421	0.102770	0.051103	1.423916	0.154347	0.057462	1.472144	0.122780	0.108704	1.424484	0.125314	0.035969	1.500595	0.061506	0.064960	1.319944	0.116237	-0.169861	1.482560	0.065524	0.046066	1.445355	0.143909
1412	14.120000	-0.030283	1.572372	-0.059970	-0.035334	1.328756	-0.102504	-0.245634	1.177812	0.056898	-0.181397	1.171030	0.014899	-0.259389	0.904657	0.081469	-0.204344	0.904174	0.116989	-0.201978	1.497446	0.037874	-0.272795	0.957418	0.110205	-0.275077	0.903441	0.117066	-0.254106	0.905261	0.135513	-0.239192	0.960875	0.139759	-0.242260	1.285303	0.119341	-0.266551	1.295481	0.065111	-0.275316	1.358266	0.069036	-0.245193	1.359458	0.119488	0.097156	1.472400	0.102789	0.051151	1.423901	0.154302	0.057494	1.472134	0.122795	0.108725	1.424465	0.125335	0.035994	1.500590	0.061524	0.064975	1.319933	0.116241	-0.169835	1.482548	0.065553	0.046080	1.445364	0.143931
1413	14.130000	-0.030254	1.572382	-0.059944	-0.035322	1.328770	-0.102500	-0.245595	1.177796	0.056920	-0.181359	1.171018	0.014917	-0.259295	0.904639	0.081507	-0.204255	0.904169	0.117034	-0.201953	1.497458	0.037896	-0.272709	0.957406	0.110244	-0.274981	0.903402	0.117120	-0.253981	0.905222	0.135479	-0.239129	0.960859	0.139804	-0.242252	1.285277	0.119356	-0.266538	1.295461	0.065121	-0.275305	1.358246	0.069054	-0.245177	1.359436	0.119509	0.097183	1.472387	0.102814	0.051196	1.423835	0.154217	0.057512	1.472116	0.122809	0.108749	1.424450	0.125350	0.036019	1.500585	0.061543	0.064989	1.319921	0.116244	-0.169807	1.482536	0.065580	0.046107	1.445340	0.143949
1414	14.140000	-0.030224	1.572393	-0.059917	-0.035307	1.328786	-0.102497	-0.245557	1.177781	0.056946	-0.181324	1.171006	0.014939	-0.259203	0.904624	0.081550	-0.204167	0.904166	0.117084	-0.201928	1.497470	0.037915	-0.272626	0.957395	0.110278	-0.274886	0.903392	0.117161	-0.253902	0.905239	0.135580	-0.239044	0.960874	0.139833	-0.242233	1.285277	0.119360	-0.266508	1.295458	0.065125	-0.275281	1.358237	0.069067	-0.245155	1.359438	0.119526	0.097212	1.472372	0.102833	0.051229	1.423839	0.154249	0.057541	1.472107	0.122825	0.108775	1.424431	0.125363	0.036045	1.500579	0.061563	0.065004	1.319909	0.116245	-0.169777	1.482522	0.065607	0.046130	1.445329	0.143961
1415	14.150000	-0.030195	1.572403	-0.059890	-0.035288	1.328800	-0.102496	-0.245519	1.177767	0.056976	-0.181289	1.170993	0.014965	-0.259115	0.904609	0.081599	-0.204083	0.904162	0.117139	-0.201903	1.497478	0.037933	-0.272551	0.957380	0.110337	-0.274796	0.903370	0.117216	-0.253819	0.905195	0.135574	-0.238969	0.960859	0.139885	-0.242221	1.285257	0.119388	-0.266489	1.295437	0.065144	-0.275268	1.358219	0.069090	-0.245134	1.359415	0.119548	0.097225	1.472339	0.102834	0.051239	1.423795	0.154260	0.057586	1.472087	0.122852	0.108815	1.424412	0.125374	0.036069	1.500573	0.061583	0.065019	1.319895	0.116247	-0.169745	1.482510	0.065632	0.046147	1.445308	0.143975
1416	14.160000	-0.030163	1.572414	-0.059863	-0.035268	1.328817	-0.102496	-0.245484	1.177753	0.057011	-0.181258	1.170979	0.014993	-0.259028	0.904598	0.081652	-0.204000	0.904162	0.117197	-0.201877	1.497488	0.037948	-0.272473	0.957384	0.110377	-0.274702	0.903351	0.117266	-0.253741	0.905206	0.135633	-0.238890	0.960868	0.139938	-0.242176	1.285254	0.119402	-0.266443	1.295424	0.065159	-0.275239	1.358208	0.069105	-0.245107	1.359413	0.119565	0.097245	1.472319	0.102852	0.051254	1.423802	0.154293	0.057596	1.472063	0.122886	0.108825	1.424380	0.125391	0.036095	1.500568	0.061604	0.065033	1.319882	0.116248	-0.169712	1.482497	0.065656	0.046169	1.445305	0.143995
1417	14.170000	-0.030132	1.572423	-0.059836	-0.035245	1.328830	-0.102495	-0.245449	1.177741	0.057050	-0.181228	1.170966	0.015025	-0.258949	0.904587	0.081711	-0.203922	0.904160	0.117258	-0.201853	1.497492	0.037960	-0.272406	0.957364	0.110448	-0.274626	0.903340	0.117321	-0.253687	0.905247	0.135787	-0.238814	0.960865	0.139981	-0.242141	1.285239	0.119441	-0.266414	1.295406	0.065189	-0.275212	1.358196	0.069151	-0.245070	1.359411	0.119595	0.097265	1.472309	0.102873	0.051236	1.423816	0.154402	0.057626	1.472053	0.122902	0.108843	1.424370	0.125405	0.036119	1.500561	0.061625	0.065049	1.319868	0.116251	-0.169679	1.482485	0.065679	0.046182	1.445289	0.144012
1418	14.180000	-0.030100	1.572430	-0.059810	-0.035221	1.328842	-0.102494	-0.245416	1.177729	0.057093	-0.181200	1.170953	0.015059	-0.258874	0.904579	0.081773	-0.203846	0.904160	0.117320	-0.201828	1.497496	0.037971	-0.272340	0.957347	0.110515	-0.274551	0.903341	0.117371	-0.253623	0.905242	0.135833	-0.238743	0.960867	0.140035	-0.242113	1.285233	0.119466	-0.266381	1.295400	0.065225	-0.275178	1.358183	0.069184	-0.245004	1.359428	0.119656	0.097292	1.472299	0.102883	0.051309	1.423753	0.154292	0.057644	1.472029	0.122909	0.108858	1.424347	0.125430	0.036143	1.500554	0.061646	0.065064	1.319855	0.116255	-0.169645	1.482474	0.065701	0.046212	1.445288	0.144022
1419	14.190000	-0.030069	1.572435	-0.059785	-0.035195	1.328851	-0.102492	-0.245383	1.177718	0.057140	-0.181174	1.170941	0.015097	-0.258804	0.904572	0.081838	-0.203775	0.904161	0.117383	-0.201803	1.497498	0.037981	-0.272285	0.957339	0.110577	-0.274491	0.903331	0.117420	-0.253574	0.905236	0.135906	-0.238683	0.960859	0.140096	-0.242065	1.285222	0.119519	-0.266343	1.295381	0.065268	-0.275133	1.358159	0.069219	-0.244943	1.359408	0.119697	0.097305	1.472284	0.102917	0.051318	1.423740	0.154341	0.057658	1.472035	0.122945	0.108870	1.424342	0.125450	0.036166	1.500546	0.061668	0.065078	1.319841	0.116262	-0.169613	1.482464	0.065721	0.046209	1.445276	0.144047
